<mxfile host="app.diagrams.net" agent="Mozilla/5.0 (Windows NT 10.0; Win64; x64) AppleWebKit/537.36 (KHTML, like Gecko) Chrome/131.0.0.0 Safari/537.36" version="24.9.3">
  <diagram name="หน้า-1" id="pLMr42lT1EMm6gmptdLX">
    <mxGraphModel dx="1050" dy="530" grid="1" gridSize="10" guides="1" tooltips="1" connect="1" arrows="1" fold="1" page="1" pageScale="1" pageWidth="827" pageHeight="1169" math="0" shadow="0">
      <root>
        <mxCell id="0" />
        <mxCell id="1" parent="0" />
        <mxCell id="_4t2TBMt41z4fpu9fUxw-3" value="" style="edgeStyle=orthogonalEdgeStyle;rounded=0;orthogonalLoop=1;jettySize=auto;html=1;" edge="1" parent="1" source="_4t2TBMt41z4fpu9fUxw-1" target="_4t2TBMt41z4fpu9fUxw-2">
          <mxGeometry relative="1" as="geometry" />
        </mxCell>
        <mxCell id="_4t2TBMt41z4fpu9fUxw-1" value="Start" style="ellipse;whiteSpace=wrap;html=1;" vertex="1" parent="1">
          <mxGeometry x="354" y="10" width="120" height="80" as="geometry" />
        </mxCell>
        <mxCell id="_4t2TBMt41z4fpu9fUxw-11" value="" style="edgeStyle=orthogonalEdgeStyle;rounded=0;orthogonalLoop=1;jettySize=auto;html=1;" edge="1" parent="1" source="_4t2TBMt41z4fpu9fUxw-2" target="_4t2TBMt41z4fpu9fUxw-10">
          <mxGeometry relative="1" as="geometry" />
        </mxCell>
        <mxCell id="_4t2TBMt41z4fpu9fUxw-2" value="Input num" style="shape=parallelogram;perimeter=parallelogramPerimeter;whiteSpace=wrap;html=1;fixedSize=1;" vertex="1" parent="1">
          <mxGeometry x="354" y="180" width="120" height="60" as="geometry" />
        </mxCell>
        <mxCell id="_4t2TBMt41z4fpu9fUxw-7" value="F" style="edgeStyle=orthogonalEdgeStyle;rounded=0;orthogonalLoop=1;jettySize=auto;html=1;" edge="1" parent="1" source="_4t2TBMt41z4fpu9fUxw-4" target="_4t2TBMt41z4fpu9fUxw-6">
          <mxGeometry relative="1" as="geometry" />
        </mxCell>
        <mxCell id="_4t2TBMt41z4fpu9fUxw-15" value="T" style="edgeStyle=orthogonalEdgeStyle;rounded=0;orthogonalLoop=1;jettySize=auto;html=1;" edge="1" parent="1" source="_4t2TBMt41z4fpu9fUxw-4" target="_4t2TBMt41z4fpu9fUxw-14">
          <mxGeometry relative="1" as="geometry" />
        </mxCell>
        <mxCell id="_4t2TBMt41z4fpu9fUxw-4" value="get all prime num" style="rhombus;whiteSpace=wrap;html=1;" vertex="1" parent="1">
          <mxGeometry x="374" y="460" width="80" height="80" as="geometry" />
        </mxCell>
        <mxCell id="_4t2TBMt41z4fpu9fUxw-9" value="" style="edgeStyle=orthogonalEdgeStyle;rounded=0;orthogonalLoop=1;jettySize=auto;html=1;" edge="1" parent="1" source="_4t2TBMt41z4fpu9fUxw-6" target="_4t2TBMt41z4fpu9fUxw-8">
          <mxGeometry relative="1" as="geometry" />
        </mxCell>
        <mxCell id="_4t2TBMt41z4fpu9fUxw-6" value="find prime num" style="whiteSpace=wrap;html=1;" vertex="1" parent="1">
          <mxGeometry x="354" y="640" width="120" height="60" as="geometry" />
        </mxCell>
        <mxCell id="_4t2TBMt41z4fpu9fUxw-8" value="Output prime num" style="shape=parallelogram;perimeter=parallelogramPerimeter;whiteSpace=wrap;html=1;fixedSize=1;" vertex="1" parent="1">
          <mxGeometry x="354" y="780" width="120" height="60" as="geometry" />
        </mxCell>
        <mxCell id="_4t2TBMt41z4fpu9fUxw-12" value="" style="edgeStyle=orthogonalEdgeStyle;rounded=0;orthogonalLoop=1;jettySize=auto;html=1;" edge="1" parent="1" source="_4t2TBMt41z4fpu9fUxw-10" target="_4t2TBMt41z4fpu9fUxw-4">
          <mxGeometry relative="1" as="geometry" />
        </mxCell>
        <mxCell id="_4t2TBMt41z4fpu9fUxw-10" value="" style="shape=waypoint;sketch=0;size=6;pointerEvents=1;points=[];fillColor=default;resizable=0;rotatable=0;perimeter=centerPerimeter;snapToPoint=1;" vertex="1" parent="1">
          <mxGeometry x="404" y="340" width="20" height="20" as="geometry" />
        </mxCell>
        <mxCell id="_4t2TBMt41z4fpu9fUxw-13" style="edgeStyle=orthogonalEdgeStyle;rounded=0;orthogonalLoop=1;jettySize=auto;html=1;exitX=1;exitY=0.5;exitDx=0;exitDy=0;entryX=1.06;entryY=0.46;entryDx=0;entryDy=0;entryPerimeter=0;" edge="1" parent="1" source="_4t2TBMt41z4fpu9fUxw-8" target="_4t2TBMt41z4fpu9fUxw-10">
          <mxGeometry relative="1" as="geometry">
            <Array as="points">
              <mxPoint x="490" y="810" />
              <mxPoint x="490" y="350" />
            </Array>
          </mxGeometry>
        </mxCell>
        <mxCell id="_4t2TBMt41z4fpu9fUxw-14" value="End" style="ellipse;whiteSpace=wrap;html=1;" vertex="1" parent="1">
          <mxGeometry x="160" y="460" width="120" height="80" as="geometry" />
        </mxCell>
      </root>
    </mxGraphModel>
  </diagram>
</mxfile>
